<svg id="Layer_1" data-name="Layer 1" xmlns="http://www.w3.org/2000/svg" xmlns:xlink="http://www.w3.org/1999/xlink" viewBox="0 0 392.44 329.61">
    <defs>
        <style>.cls-1{fill:none;}.cls-2{clip-path:url(#clip-path);}.cls-3{fill:#5c5d61;}.cls-4{fill:#24c8bd;}</style>
        <clipPath id="clip-path" transform="translate(-509.56 -138.42)">
            <rect class="cls-1" width="1366.02" height="767.91"/>
        </clipPath>
    </defs>
    <g class="cls-2">
        <path class="cls-3" d="M841.12,179.79a5.93,5.93,0,0,0-2.34-2.14,307.14,307.14,0,0,0-53.48-25.7c-12.3-4.62-25.51-7-38.41-9.22-73.41-12.57-145.16,2.4-206.46,44.56a4.4,4.4,0,0,0-2.18,4.86c1.46,11,2.7,22,5.29,32.74l1-.24c2.64-5.95,17.05-18,17.2-18-.27-1.41-.43-8,1.65-9.25,53.93-33.21,113.09-45,175.55-35.77,0,0,34.14,4.4,78.64,28,2.14,1.14,2.12,2.63,2,4.52C819,200,817.1,217.77,816,225c5,6,14.9,27.23,15.81,30.72l9.31-75.93" transform="translate(-509.56 -138.42)"/>
        <path class="cls-4" d="M788.59,324.69c.5.9.39,2-.28,3.6a268,268,0,0,1-26.43,48.9,246.48,246.48,0,0,1-27.47,33.41c-10.62,10.84-21.79,21.06-34.29,29.76-2.44,1.7-4,1.89-6.47.1C659.41,415.93,649,399.38,649,399.38c-3.33-4.29-9-12.06-14-19.38-4.9-.94-7-1-15-3a98.7,98.7,0,0,1-16-5,149.61,149.61,0,0,0,8.77,14.9c1.34,2,2.28,3.51,3.54,5.13l13.38,17.33,8.72,10.31c1.28,1.29,2.58,2.56,3.85,3.87,15.5,16,32.17,30.6,51.47,42,2.46,1.45,4.09,1.25,6.38-.09,14.89-8.72,28.15-19.54,40.7-31.29,15.77-14.76,29.29-31.43,41.6-49.12l3.78-5.83c.39-.82.84-1.69,1.37-2.6s1.06-1.73,1.58-2.48l7.71-13.91c.22-.23,3.21-6,4.14-7.81,1.82-4.25,3.76-8.46,5.42-12.77a5.26,5.26,0,0,1,.71-1.35,164.57,164.57,0,0,0-18.5-13.6" transform="translate(-509.56 -138.42)"/>
        <path class="cls-3" d="M719.38,425a203.82,203.82,0,0,1-19.25,15.34c-2.44,1.7-4,1.89-6.47.1-6.37-4.56-11.92-8.85-16.73-12.8-5.1,4.8-10.09,9.76-15.4,14.3a215.36,215.36,0,0,0,32.19,23.59c2.46,1.45,4.09,1.25,6.38-.09,13.88-8.12,26.32-18.08,38.11-28.91-6.26-3.87-12.56-7.67-18.82-11.53" transform="translate(-509.56 -138.42)"/>
        <path class="cls-3" d="M590.22,363.31c1.6.59,51.14,15.61,78.33,16.83-15.74-11.41-29.07-22.65-41.08-35.42a249.25,249.25,0,0,1-46.26-70.4c-3.42-8-5.77-14.68-7.2-19-5.56,11.13-17.84,39.69-10.2,73.68a101.74,101.74,0,0,0,10.33,27c5.36,2.44,10.55,5.24,16.07,7.29" transform="translate(-509.56 -138.42)"/>
        <path class="cls-4" d="M834.13,288.55c-1.63-10.48-5.38-20.35-13.46-26.87-9.37-7.57-21.18-11.08-32.61-14.23-12.95-3.56-26.15-5.39-39.42-7.29q-3.26-.47-6.54-.87-11.25-1.37-22.59-1.89c-2.62-.12-5.34-.19-7.76.84-3.25,1.39-5.37,4.5-8.14,6.69s-7.28,3.23-9.53.51c-1.79-2.16-1-5.63,1-7.6s4.86-2.75,7.61-3.33c17-3.55,34.54-1.59,51.7.79,25,3.47,50.89,8.23,71.13,23.27a134.77,134.77,0,0,0-48.63-61.85c-7.1-4.92-15.12-9.28-23.76-9.31-7.4,0-14.41,3.13-21,6.47A299.12,299.12,0,0,0,699,213.39c-8.09,5.49-16.08,11.55-21.47,19.72-2.45,3.72-4.32,7.8-6.95,11.39-6.29,8.58-16.76,14-21.09,24-2,4.63-3.08,8.77-1.63,13.82a19.35,19.35,0,0,0,8.45,11.26,15.85,15.85,0,0,0,4.23,1.76c3.08-15.76,18.68-26.19,34.25-30.09,29-7.26,60.65,2.63,83.48,21.91s37.42,47,45.14,75.82c9.45-17.62,11.85-38.19,11.82-58.19a107.71,107.71,0,0,0-1.12-16.22" transform="translate(-509.56 -138.42)"/>
        <path class="cls-3" d="M636,212.09a305,305,0,0,1,11-29.52,117.39,117.39,0,0,0-20.13,9.6C595.8,210.84,582.5,235.37,576,251c2,7,7.88,20.71,8,21,17.63,41.8,42.26,66.42,43,67a295.79,295.79,0,0,1-3.51-65.3c1.88-28.09,8.6-49.11,12.53-61.61" transform="translate(-509.56 -138.42)"/>
        <path class="cls-3" d="M651.23,181c-1.62,3.73-3.77,8.84-6.15,15s-5.65,14.68-9.06,26.16c-2.65,8.94-5,17.13-6.71,28.34-.89,6-2.78,24.57-2.32,24.48,1.12-.21,41.36-46.18,75.54-67.9C715.69,198.74,729,189,752,183c-33-14-84.77-8.43-100.77-2" transform="translate(-509.56 -138.42)"/>
        <path class="cls-4" d="M736.72,364.5c-.56,1.7-4.19,12.57-6,15.71a2.83,2.83,0,0,1-1.72,1.53c-.43.1-1.38-.64-1.61-1.2-2.69-6.66-5.28-13.37-7.91-20.05q-3.78-9.63-7.59-19.24a11.14,11.14,0,0,0-.91-1.39c-3.25,8.33-6.33,16.26-9.43,24.18-2,5.15-4,10.32-6.12,15.43a10.25,10.25,0,0,1-2.07,2.41,10.1,10.1,0,0,1-2-2.42C682.11,356,672.89,332.5,663.87,309c-1.22-3.18-2.62-4.94-6.17-4.27a2.23,2.23,0,0,1-1.91-.7h61.8l.06.55-6.38.42,23.53,60.47,1.92-.94m-37.15,1.76c3.77-9.7,7.25-18.62,10.67-27.57a3.38,3.38,0,0,0-.11-2.22q-5.78-15-11.69-29.9c-.3-.74-1.24-1.74-1.91-1.75-6.86-.13-13.73-.08-21.05-.08l24.09,61.52m36.68-1.42a.77.77,0,0,1-.14.38c-.11.14-.32.28-.4.24s0-.64,1.35-4.43c.52-1.43.82-2.19.95-2.51.38-1,.72-1.79,1-2.39q.82-2.22,1.6-4.19l0-.1c2.53-6.38,2.3-6.1,4.7-12.12,1.15-2.9.87-2.13,3.1-7.67,1.43-3.57,2.52-6.29,3.8-9.83.41-1.13.74-2.07,1-2.68a44.32,44.32,0,0,1-6.37.8c-4.87-.09-8.38-4.06-8.29-9.07a8.58,8.58,0,0,1,8.74-8.67c5.06,0,9.1,3.45,9,8.35-.06,2.22-.55,4.4-1.86,8.76-.25.83-.51,1.63-.55,1.74-.18.57-.37,1.13-.64,1.87s-13.46,33.64-14,35c-.37.95-1.5,3.93-2.53,6.39a4.83,4.83,0,0,1-.52,1,3.86,3.86,0,0,1,.14-.91" transform="translate(-509.56 -138.42)"/>
    </g>
</svg>